HIERARCHY
ROOT Hips
{
 OFFSET 0.000000 0.000000 0.000000
 CHANNELS 6 Xposition Yposition Zposition Yrotation Xrotation Zrotation
 JOINT Chest
 {
  OFFSET 0.000000 9.585900 0.002600
  CHANNELS 3 Yrotation Xrotation Zrotation
  JOINT Chest2
  {
   OFFSET 0.000000 9.601200 -0.005300
   CHANNELS 3 Yrotation Xrotation Zrotation
   JOINT Chest3
   {
    OFFSET 0.000000 9.561800 0.000000
    CHANNELS 3 Yrotation Xrotation Zrotation
    JOINT Chest4
    {
     OFFSET 0.000000 9.552100 0.000000
     CHANNELS 3 Yrotation Xrotation Zrotation
     JOINT Neck
     {
      OFFSET 0.000000 14.453000 0.000000
      CHANNELS 3 Yrotation Xrotation Zrotation
      JOINT Head
      {
       OFFSET 0.000000 8.936500 -0.011300
       CHANNELS 3 Yrotation Xrotation Zrotation
       End Site
       {
        OFFSET 0.000000 17.073600 -0.006000
       }
      }
     }
     JOINT RightCollar
     {
      OFFSET -2.921100 9.558500 0.000000
      CHANNELS 3 Yrotation Xrotation Zrotation
      JOINT RightShoulder
      {
       OFFSET -13.519700 0.000000 0.000000
       CHANNELS 3 Yrotation Xrotation Zrotation
       JOINT RightElbow
       {
        OFFSET 0.000000 -29.696600 0.000000
        CHANNELS 3 Yrotation Xrotation Zrotation
        JOINT RightWrist
        {
         OFFSET 0.000000 -24.004700 0.000000
         CHANNELS 3 Yrotation Xrotation Zrotation
         End Site
         {
          OFFSET 0.000000 -17.728500 0.000000
         }
        }
       }
      }
     }
     JOINT LeftCollar
     {
      OFFSET 2.921100 9.558500 0.000000
      CHANNELS 3 Yrotation Xrotation Zrotation
      JOINT LeftShoulder
      {
       OFFSET 13.519700 0.000000 0.000000
       CHANNELS 3 Yrotation Xrotation Zrotation
       JOINT LeftElbow
       {
        OFFSET 0.000000 -29.696600 0.000000
        CHANNELS 3 Yrotation Xrotation Zrotation
        JOINT LeftWrist
        {
         OFFSET 0.000000 -24.004700 0.000000
         CHANNELS 3 Yrotation Xrotation Zrotation
         End Site
         {
          OFFSET 0.000000 -17.728500 0.000000
         }
        }
       }
      }
     }
    }
   }
  }
 }
 JOINT RightHip
 {
  OFFSET -7.771700 -0.012900 -0.001300
  CHANNELS 3 Yrotation Xrotation Zrotation
  JOINT RightKnee
  {
   OFFSET 0.000000 -40.869800 0.001200
   CHANNELS 3 Yrotation Xrotation Zrotation
   JOINT RightAnkle
   {
    OFFSET 0.000000 -39.717900 0.002100
    CHANNELS 3 Yrotation Xrotation Zrotation
    JOINT RightToe
    {
     OFFSET 0.000000 -4.965400 11.033500
     CHANNELS 3 Yrotation Xrotation Zrotation
     End Site
     {
      OFFSET 0.000000 -1.423100 5.872300
     }
    }
   }
  }
 }
 JOINT LeftHip
 {
  OFFSET 7.771700 -0.012900 -0.001300
  CHANNELS 3 Yrotation Xrotation Zrotation
  JOINT LeftKnee
  {
   OFFSET 0.000000 -40.869800 0.001200
   CHANNELS 3 Yrotation Xrotation Zrotation
   JOINT LeftAnkle
   {
    OFFSET 0.000000 -39.717900 0.002100
    CHANNELS 3 Yrotation Xrotation Zrotation
    JOINT LeftToe
    {
     OFFSET 0.000000 -4.965400 11.033500
     CHANNELS 3 Yrotation Xrotation Zrotation
     End Site
     {
      OFFSET 0.000000 -1.423100 5.872300
     }
    }
   }
  }
 }
}
MOTION
Frames: 12
Frame Time: 0.008333
0.000000 85.388000 0.000000 0.000000 -5.767877 0.000000 0.000000 11.653817 0.000000 0.000000 -5.885947 0.000000 0.000000 -0.000000 0.000000 0.000000 -0.000000 0.000000 0.000000 12.528835 0.000000 0.000000 0.711642 0.000000 0.000000 -0.000000 0.000000 0.000000 0.000000 -90.000000 0.000000 -2.309062 0.000000 0.000000 2.309062 0.000000 0.000000 -0.000000 0.000000 0.000000 -0.000000 90.000000 0.000000 -2.309062 0.000000 0.000000 2.309062 0.000000 0.000000 8.520406 0.000000 0.000000 1.905762 0.000000 -0.000000 -4.658285 0.000000 0.000000 -0.000000 0.000000 0.000000 8.520406 0.000000 0.000000 1.905762 0.000000 -0.000000 -4.658285 0.000000 0.000000 -0.000000 0.000000
-159.724686 55.822126 106.145297 -175.528360 -23.665673 -10.873055 -0.113793 11.115474 6.819263 -0.469819 6.581676 2.293966 -0.587504 8.205308 2.844198 -0.495918 6.569184 2.283371 -8.152546 27.512271 -3.283184 -8.329785 4.917797 -1.800855 1.650425 3.303894 -3.203620 -16.562994 -9.074683 3.500594 164.422857 -66.251855 -142.619927 13.798573 -10.965241 -37.090602 -7.908982 1.946304 -3.325426 -0.045066 4.842265 -1.336469 -102.225391 -57.569270 104.631914 7.761381 -34.109832 5.243743 -24.759797 -39.357058 12.993393 40.405862 84.390581 36.420423 0.097940 -19.519952 -2.028420 -1.104754 2.799484 -0.505110 -16.654132 -53.090040 15.435574 -175.317816 80.427586 179.494793 -1.853204 -18.368978 4.223013 -0.109311 -0.492301 -0.062823
-159.725022 55.823557 106.147536 -175.539997 -23.678333 -10.890489 -0.114595 11.109847 6.824632 -0.476769 6.586631 2.294764 -0.595691 8.201211 2.842534 -0.492468 6.573552 2.285610 -7.927011 27.393005 -3.178219 -8.092003 4.744543 -1.730544 1.641807 3.303537 -3.190952 -16.649195 -8.823522 3.515973 163.992938 -66.363770 -142.181686 13.818123 -10.861390 -36.717653 -7.887126 1.955407 -3.325577 -0.054419 4.840132 -1.309017 -102.264484 -57.635725 104.607441 7.746543 -34.018941 5.208367 -24.767743 -39.333557 13.010435 40.211990 84.386783 36.227592 0.132789 -19.514225 -2.034797 -1.118324 2.799972 -0.507161 -16.679750 -53.073200 15.463030 -175.357101 80.424926 179.456200 -1.849758 -18.368998 4.217290 -0.110252 -0.494088 -0.062558
-159.727487 55.824376 106.150487 -175.538932 -23.686762 -10.903249 -0.131676 11.095875 6.816006 -0.478079 6.594904 2.299443 -0.587225 8.209284 2.848009 -0.507948 6.561086 2.282789 -7.695692 27.262989 -3.071880 -7.848266 4.557859 -1.660145 1.596994 3.275604 -3.176268 -16.715043 -8.542973 3.525973 163.577171 -66.508311 -141.741903 13.831468 -10.754047 -36.276256 -7.884268 1.941514 -3.323111 -0.069249 4.847860 -1.245349 -102.238693 -57.732118 104.569869 7.746772 -33.920606 5.142619 -24.780001 -39.314733 13.017973 40.111078 84.378676 36.123834 0.151245 -19.519341 -2.035180 -1.132869 2.811171 -0.511530 -16.732654 -53.060355 15.478015 -175.419308 80.424482 179.392141 -1.827618 -18.363390 4.194742 -0.108251 -0.498000 -0.064467
-159.728900 55.825631 106.152498 -175.531616 -23.701434 -10.927027 -0.142748 11.096637 6.824720 -0.486166 6.590441 2.296705 -0.579989 8.220059 2.853736 -0.523120 6.545134 2.277699 -7.457323 27.124253 -2.965845 -7.596912 4.360360 -1.591844 1.583829 3.276951 -3.170567 -16.833082 -8.281134 3.555781 163.213849 -66.696661 -141.332685 13.843281 -10.653790 -35.799789 -7.876450 1.933745 -3.317238 -0.080673 4.850041 -1.187681 -102.187488 -57.809459 104.531194 7.764064 -33.813191 5.031764 -24.796934 -39.280991 13.028780 40.024430 84.362190 36.035883 0.164439 -19.532437 -2.028875 -1.144325 2.830815 -0.522760 -16.779645 -53.041229 15.491572 -175.424087 80.422057 179.394846 -1.796678 -18.361417 4.169628 -0.107873 -0.499856 -0.062366
-159.731370 55.826967 106.153098 -175.523648 -23.725012 -10.945104 -0.146230 11.116089 6.835676 -0.500607 6.572585 2.286550 -0.600509 8.197760 2.842777 -0.510049 6.563185 2.282289 -7.211176 26.976907 -2.859604 -7.337357 4.152206 -1.525249 1.563688 3.283237 -3.165398 -16.963145 -8.023558 3.585840 162.916161 -66.921839 -140.961742 13.857959 -10.561193 -35.332889 -7.872327 1.888739 -3.316685 -0.066374 4.904067 -1.150198 -102.182199 -57.855682 104.489810 7.735800 -33.684343 4.940158 -24.798701 -39.248145 13.029129 39.970504 84.353878 35.983835 0.166056 -19.531528 -2.027644 -1.145946 2.833613 -0.523240 -16.811960 -53.013128 15.503350 -175.491359 80.419065 179.323003 -1.797553 -18.357639 4.166703 -0.115705 -0.502948 -0.059092
-159.732642 55.828102 106.153435 -175.519851 -23.749620 -10.966939 -0.152001 11.120278 6.841360 -0.505206 6.570648 2.285026 -0.609462 8.188634 2.835568 -0.508439 6.567484 2.283254 -6.958080 26.818919 -2.752799 -7.070586 3.931053 -1.459790 1.535906 3.290576 -3.159657 -17.099523 -7.773214 3.614148 162.650041 -67.170833 -140.604568 13.870257 -10.474660 -34.908840 -7.856242 1.875925 -3.315382 -0.060463 4.942040 -1.132720 -102.174242 -57.860072 104.469306 7.724211 -33.539623 4.797420 -24.796392 -39.214902 13.035519 39.875306 84.350560 35.892729 0.172886 -19.524109 -2.024208 -1.149643 2.831149 -0.526004 -16.844913 -52.983742 15.519062 -175.525743 80.415398 179.289697 -1.789266 -18.358382 4.157825 -0.113284 -0.504528 -0.058782
-159.735666 55.827208 106.156232 -175.516019 -23.755733 -10.973713 -0.173451 11.091121 6.814800 -0.511506 6.565209 2.280972 -0.591259 8.220489 2.855929 -0.519646 6.553651 2.272993 -6.698767 26.648142 -2.646132 -6.797294 3.694433 -1.396150 1.517132 3.299498 -3.151172 -17.245258 -7.535398 3.638891 162.367083 -67.437726 -140.229326 13.872599 -10.390420 -34.542597 -7.839550 1.854969 -3.312082 -0.041929 4.963019 -1.086374 -102.143991 -57.893672 104.433742 7.719469 -33.370835 4.603359 -24.789843 -39.209024 13.034443 39.813995 84.349497 35.834870 0.177306 -19.521921 -2.018115 -1.152295 2.832672 -0.527030 -16.867932 -52.978727 15.504982 -175.655836 80.414184 179.173473 -1.781476 -18.357774 4.135752 -0.107584 -0.502999 -0.057494
-159.737717 55.826822 106.156955 -175.512952 -23.773504 -10.982976 -0.175171 11.100837 6.815062 -0.513067 6.564269 2.279778 -0.593825 8.218877 2.854548 -0.520668 6.553153 2.271576 -6.445643 26.450530 -2.547387 -6.517710 3.444309 -1.334803 1.513803 3.305605 -3.145509 -17.402849 -7.317068 3.657386 162.034741 -67.725340 -139.817903 13.863353 -10.302868 -34.227538 -7.831973 1.814571 -3.314685 0.030142 4.955666 -1.018002 -102.118150 -57.950852 104.352700 7.717680 -33.176265 4.377272 -24.776365 -39.191977 13.031411 39.762246 84.350191 35.786895 0.180352 -19.516229 -2.013385 -1.152652 2.828907 -0.525695 -16.877907 -52.960517 15.501337 -175.723603 80.411332 179.107914 -1.782932 -18.360144 4.132439 -0.105976 -0.502014 -0.056495
-159.738255 55.826715 106.156594 -175.496240 -23.793874 -11.003187 -0.186168 11.116131 6.820892 -0.514862 6.563173 2.278671 -0.603464 8.206727 2.843892 -0.514870 6.563192 2.278716 -6.187080 26.239336 -2.449447 -6.232823 3.183475 -1.275674 1.476512 3.284030 -3.152298 -17.501184 -7.076367 3.671437 161.656784 -68.039592 -139.384566 13.842287 -10.198024 -33.931609 -7.823515 1.800728 -3.313064 0.065855 4.956451 -0.995681 -102.097888 -57.973125 104.329330 7.721866 -32.960390 4.123514 -24.774320 -39.165846 13.034089 39.712652 84.350101 35.740217 0.174781 -19.509275 -2.004628 -1.153729 2.821679 -0.525676 -16.903555 -52.937087 15.509685 -175.763065 80.406583 179.068388 -1.788673 -18.362508 4.138787 -0.101142 -0.501145 -0.062433
-159.739774 55.825121 106.158284 -175.486671 -23.800048 -11.009437 -0.195897 11.103750 6.807417 -0.519727 6.559750 2.276725 -0.619706 8.180079 2.825937 -0.509390 6.583069 2.290421 -5.909306 26.037016 -2.345422 -5.943947 2.912297 -1.217117 1.451170 3.282854 -3.151078 -17.575231 -6.834117 3.679667 161.267159 -68.384985 -138.963648 13.808469 -10.051380 -33.603986 -7.805615 1.809994 -3.305905 0.080472 4.972848 -0.985800 -102.080037 -58.000485 104.342126 7.734744 -32.728868 3.847313 -24.772984 -39.159289 13.033289 39.718355 84.348214 35.745048 0.174596 -19.510806 -1.999786 -1.157874 2.824635 -0.526034 -16.920413 -52.934414 15.496365 -175.886013 80.403402 178.955344 -1.784231 -18.358601 4.125937 -0.101794 -0.503906 -0.064033
-159.740335 55.824559 106.157651 -175.471383 -23.819758 -11.021374 -0.208670 11.103296 6.795822 -0.524012 6.536186 2.260558 -0.613108 8.219631 2.852549 -0.523796 6.556821 2.274619 -5.624105 25.826018 -2.240070 -5.651755 2.631180 -1.156198 1.430384 3.272745 -3.154567 -17.636474 -6.571607 3.686373 160.911138 -68.766342 -138.590749 13.756569 -9.842661 -33.193354 -7.777664 1.744786 -3.324232 0.139855 5.033440 -0.936145 -102.068726 -58.067054 104.307289 7.757586 -32.483442 3.557176 -24.770809 -39.137282 13.030307 39.680044 84.351639 35.705511 0.174448 -19.507600 -1.992523 -1.165622 2.820469 -0.527247 -16.934176 -52.914959 15.486372 -176.001310 80.398298 178.847323 -1.790083 -18.359430 4.116944 -0.099888 -0.504696 -0.057598
